<?xml version="1.0" encoding="utf-8"?>
<!-- Generator: Adobe Illustrator 23.0.0, SVG Export Plug-In . SVG Version: 6.00 Build 0)  -->
<svg version="1.1" id="Warstwa_1" xmlns="http://www.w3.org/2000/svg" xmlns:xlink="http://www.w3.org/1999/xlink" x="0px" y="0px"
	 viewBox="0 0 676.92 238.46" style="enable-background:new 0 0 676.92 238.46;" xml:space="preserve">
<style type="text/css">
	.st0{fill:#808285;}
	.st1{fill:#C6DC72;}
	.st2{fill:#1C344C;}
	.st3{fill:#77AE43;}
	.st4{fill:#2A7D7D;}
</style>
<g>
	<g>
		<g>
			<path class="st0" d="M114.12,121.55v-19.17c0-6.96,5.68-12.64,12.64-12.64h44.46c6.96,0,12.64,5.68,12.64,12.64v14.17h-56.59
				v-9.16h47.43v-5.01c0-1.95-1.53-3.48-3.48-3.48h-44.46c-1.95,0-3.48,1.53-3.48,3.48v19.17c0,1.95,1.53,3.48,3.48,3.48h57.1v9.16
				h-57.1C119.8,134.19,114.12,128.51,114.12,121.55z"/>
			<path class="st0" d="M194.03,134.19V69.54h9.16v64.65H194.03z"/>
			<path class="st0" d="M213.37,121.55V79.64h9.16v10.1h22.14v9.16h-22.14v22.65c0,1.95,1.53,3.48,3.48,3.48h22.74v9.16h-22.74
				C219.06,134.19,213.37,128.51,213.37,121.55z"/>
			<path class="st0" d="M257.66,102.38c0-6.96,5.68-12.64,12.64-12.64h32.83v9.16H270.3c-1.95,0-3.48,1.53-3.48,3.48v31.82h-9.16
				V102.38z"/>
			<path class="st0" d="M312.46,121.55v-4.24c0-6.96,5.68-12.64,12.64-12.64h43.95v9.08H325.1c-1.95,0-3.48,1.61-3.48,3.56v4.24
				c0,1.95,1.53,3.48,3.48,3.48h47.94v-22.65c0-1.95-1.53-3.48-3.48-3.48h-55.06v-9.16h55.06c6.96,0,12.64,5.68,12.64,12.64v31.82
				h-57.1C318.14,134.19,312.46,128.51,312.46,121.55z"/>
			<path class="st0" d="M452.95,102.38c0-1.95-1.53-3.48-3.48-3.48h-47.93v35.29h-9.16V89.74h57.1c6.96,0,12.64,5.68,12.64,12.64
				v31.82h-9.16V102.38z"/>
			<path class="st0" d="M474.32,125.03h55.06c1.95,0,3.48-1.53,3.48-3.48v-1.53c0-1.87-1.53-3.48-3.48-3.48h-44.46
				c-6.96,0-12.64-5.68-12.64-12.64v-1.53c0-6.96,5.68-12.64,12.64-12.64h55.06v9.16h-55.06c-1.95,0-3.48,1.53-3.48,3.48v1.53
				c0,1.95,1.53,3.48,3.48,3.48h44.46c6.96,0,12.64,5.68,12.64,12.64v1.53c0,6.96-5.69,12.64-12.64,12.64h-55.06V125.03z"/>
		</g>
		<rect x="114.12" y="146.13" class="st1" width="102.92" height="6.61"/>
		<rect x="437.91" y="146.13" class="st2" width="102.92" height="6.61"/>
		<rect x="222.05" y="146.13" class="st3" width="102.92" height="6.61"/>
		<rect x="329.98" y="146.13" class="st4" width="102.92" height="6.61"/>
	</g>
	<g>
		<g>
			<path class="st0" d="M558.34,81.23v5.22h-1.69V73.94h3.54c0.79,0,1.48,0.08,2.05,0.24c0.58,0.16,1.05,0.39,1.43,0.69
				c0.38,0.3,0.65,0.67,0.83,1.1c0.18,0.43,0.27,0.91,0.27,1.44c0,0.44-0.07,0.86-0.21,1.24c-0.14,0.38-0.34,0.73-0.61,1.03
				c-0.27,0.31-0.59,0.57-0.97,0.78c-0.38,0.22-0.81,0.38-1.3,0.49c0.21,0.12,0.4,0.3,0.56,0.53l3.65,4.97h-1.5
				c-0.31,0-0.54-0.12-0.68-0.36l-3.25-4.47c-0.1-0.14-0.21-0.24-0.32-0.3c-0.12-0.06-0.29-0.09-0.52-0.09H558.34z M558.34,80h1.77
				c0.49,0,0.93-0.06,1.31-0.18c0.38-0.12,0.69-0.29,0.94-0.51c0.25-0.22,0.44-0.48,0.57-0.78c0.13-0.3,0.19-0.64,0.19-1
				c0-0.75-0.25-1.31-0.74-1.69s-1.22-0.57-2.2-0.57h-1.85V80z"/>
		</g>
		<path class="st0" d="M560.71,90.24c-5.56,0-10.08-4.52-10.08-10.09s4.52-10.08,10.08-10.08c5.56,0,10.09,4.52,10.09,10.08
			S566.27,90.24,560.71,90.24z M560.71,71.07c-5.01,0-9.08,4.08-9.08,9.08c0,5.01,4.08,9.09,9.08,9.09s9.09-4.08,9.09-9.09
			C569.79,75.14,565.72,71.07,560.71,71.07z"/>
	</g>
</g>
</svg>
